<?xml version="1.0" encoding="UTF-8" standalone="no"?>
<svg
   xmlns:dc="http://purl.org/dc/elements/1.1/"
   xmlns:cc="http://creativecommons.org/ns#"
   xmlns:rdf="http://www.w3.org/1999/02/22-rdf-syntax-ns#"
   xmlns:svg="http://www.w3.org/2000/svg"
   xmlns="http://www.w3.org/2000/svg"
   xmlns:sodipodi="http://sodipodi.sourceforge.net/DTD/sodipodi-0.dtd"
   xmlns:inkscape="http://www.inkscape.org/namespaces/inkscape"
   width="100"
   height="100"
   viewBox="0 0 26.458333 26.458334"
   version="1.1"
   id="svg8"
   inkscape:version="1.0 (4035a4fb49, 2020-05-01)"
   sodipodi:docname="Loading.svg">
  <title
     id="title27">Loading</title>
  <style
     id="style3">
	 @keyframes rotater{0% {transform: rotate(0deg);}100% {transform: rotate(360deg);}}
	 path{transform-origin: center !important;}
	 </style>
  <defs
     id="defs2" />
  <sodipodi:namedview
     id="base"
     pagecolor="#ffffff"
     bordercolor="#666666"
     borderopacity="1.0"
     inkscape:pageopacity="0.0"
     inkscape:pageshadow="2"
     inkscape:zoom="2.6190229"
     inkscape:cx="168.73708"
     inkscape:cy="78.633678"
     inkscape:document-units="mm"
     inkscape:current-layer="layer1"
     inkscape:document-rotation="0"
     showgrid="true"
     units="px"
     inkscape:window-width="1600"
     inkscape:window-height="847"
     inkscape:window-x="-8"
     inkscape:window-y="-8"
     inkscape:window-maximized="1" />
  <metadata
     id="metadata5">
    <rdf:RDF>
      <cc:Work
         rdf:about="">
        <dc:format>image/svg+xml</dc:format>
        <dc:type
           rdf:resource="http://purl.org/dc/dcmitype/StillImage" />
        <dc:title>Loading</dc:title>
        <cc:license
           rdf:resource="http://creativecommons.org/licenses/by-sa/4.0/" />
        <dc:creator>
          <cc:Agent>
            <dc:title>Sharkbyteprojects</dc:title>
          </cc:Agent>
        </dc:creator>
        <dc:rights>
          <cc:Agent>
            <dc:title>&lt;c&gt; Sharkbyteprojects</dc:title>
          </cc:Agent>
        </dc:rights>
        <dc:publisher>
          <cc:Agent>
            <dc:title>Sharkbyteprojects</dc:title>
          </cc:Agent>
        </dc:publisher>
      </cc:Work>
      <cc:License
         rdf:about="http://creativecommons.org/licenses/by-sa/4.0/">
        <cc:permits
           rdf:resource="http://creativecommons.org/ns#Reproduction" />
        <cc:permits
           rdf:resource="http://creativecommons.org/ns#Distribution" />
        <cc:requires
           rdf:resource="http://creativecommons.org/ns#Notice" />
        <cc:requires
           rdf:resource="http://creativecommons.org/ns#Attribution" />
        <cc:permits
           rdf:resource="http://creativecommons.org/ns#DerivativeWorks" />
        <cc:requires
           rdf:resource="http://creativecommons.org/ns#ShareAlike" />
      </cc:License>
    </rdf:RDF>
  </metadata>
  <g
     inkscape:label="mainlayer"
     inkscape:groupmode="layer"
     id="layer1">
    <path
       id="path14"
       style="fill:#ff6600;animation: rotater reverse 2.2s linear infinite !important;stroke-width:3.0998"
       d="m 4.888877,5.1479578 a 11.795258,11.795258 0 0 0 -3.455622,8.3396802 11.795258,11.795258 0 0 0 3.455622,8.33964 l 8.339586,-8.33964 z m 8.339586,8.3396802 8.33967,8.33964 a 11.795258,11.795258 0 0 0 3.455622,-8.33964 11.795258,11.795258 0 0 0 -3.455622,-8.3396802 z" />
    <path
       d="m 20.305615,22.922288 a 11.795258,11.795258 0 0 0 4.59964,-7.76747 11.795258,11.795258 0 0 0 -2.242132,-8.7443002 l -9.43466,7.0771102 z M 13.228463,13.487628 6.151308,4.0529879 a 11.795258,11.795258 0 0 0 -4.599641,7.7674401 11.795258,11.795258 0 0 0 2.242128,8.74432 z"
       style="fill:#ffcc00;animation: rotater 2s linear infinite !important;stroke-width:3.0998"
       id="path23" />
    <path
       id="path12"
       style="fill:#00ff00;animation: rotater reverse 1s linear infinite !important;stroke-width:3.0998"
       d="m 20.305615,22.922288 a 11.795258,11.795258 0 0 0 4.59964,-7.76747 11.795258,11.795258 0 0 0 -2.242132,-8.7443002 l -9.43466,7.0771102 z M 13.228463,13.487628 6.151308,4.0529879 a 11.795258,11.795258 0 0 0 -4.599641,7.7674401 11.795258,11.795258 0 0 0 2.242128,8.74432 z" />
  </g>
</svg>
