<?xml version="1.0" encoding="UTF-8" standalone="no"?>
<svg
   xmlns:dc="http://purl.org/dc/elements/1.1/"
   xmlns:cc="http://creativecommons.org/ns#"
   xmlns:rdf="http://www.w3.org/1999/02/22-rdf-syntax-ns#"
   xmlns:svg="http://www.w3.org/2000/svg"
   xmlns="http://www.w3.org/2000/svg"
   xmlns:sodipodi="http://sodipodi.sourceforge.net/DTD/sodipodi-0.dtd"
   xmlns:inkscape="http://www.inkscape.org/namespaces/inkscape"
   inkscape:version="1.0 (4035a4fb49, 2020-05-01)"
   sodipodi:docname="aperturecolored.svg"
   id="svg4"
   version="1.1"
   viewBox="0 0 8 8"
   height="8"
   width="8">
  <metadata
     id="metadata10">
    <rdf:RDF>
      <cc:Work
         rdf:about="">
        <dc:format>image/svg+xml</dc:format>
        <dc:type
           rdf:resource="http://purl.org/dc/dcmitype/StillImage" />
        <dc:title></dc:title>
      </cc:Work>
    </rdf:RDF>
  </metadata>
  <defs
     id="defs8" />
  <sodipodi:namedview
     inkscape:current-layer="svg4"
     inkscape:window-maximized="1"
     inkscape:window-y="-8"
     inkscape:window-x="-8"
     inkscape:cy="4.2483857"
     inkscape:cx="4"
     inkscape:zoom="82.207143"
     showgrid="false"
     id="namedview6"
     inkscape:window-height="847"
     inkscape:window-width="1600"
     inkscape:pageshadow="2"
     inkscape:pageopacity="0"
     guidetolerance="10"
     gridtolerance="10"
     objecttolerance="10"
     borderopacity="1"
     bordercolor="#666666"
     pagecolor="#ffffff" />
  <path
     style="fill:#ff6600"
     sodipodi:nodetypes="scccs"
     id="path2"
     d="M 4,0 C 3.31,0 2.66,0.19 2.09,0.5 L 5.31,2.84 6.06,0.59 C 5.46,0.23 4.75,0 4,0 Z" />
  <path
     style="fill:#2a2aff"
     sodipodi:nodetypes="cccsc"
     d="M 6.88,1.26 5.66,5.01 H 7.85 C 7.93,4.69 8.01,4.36 8.01,4.01 8.01,2.94 7.57,1.98 6.88,1.26 Z"
     id="path14" />
  <path
     style="fill:#00ccff"
     sodipodi:nodetypes="cccc"
     id="path16"
     d="M 3.72,6.01 4.35,7.98 C 5.68,7.86 6.81,7.1 7.44,6.01 Z" />
  <path
     style="fill:#ccff00"
     sodipodi:nodetypes="cccc"
     d="M 2.16,4.48 0.41,5.73 c 0.55,1.13 1.6,1.99 2.88,2.22 z"
     id="path18" />
  <path
     style="fill:#66ff00"
     sodipodi:nodetypes="cscccc"
     id="path20"
     d="M 1.25,1.13 C 0.49,1.86 0,2.87 0,4.01 0,4.26 0.02,4.49 0.06,4.73 L 3.15,2.51 1.24,1.13 Z" />
</svg>
